<svg version="1.0" xmlns="http://www.w3.org/2000/svg" width="933.333" height="933.333" viewBox="0 0 700 700"><path d="M0 350v350h700V0H0v350zM573.8 65.1c22.7 2.4 35.4 7.2 44.6 16.8 6.8 7.2 10.1 13.9 12.8 26.4 2.6 12.1 3.3 52 2 116.2-1.1 50-1.2 51.4-7.3 64.5-1.7 3.6-4.9 8.9-7.2 12-4.9 6.5-18.3 19.9-27.2 27.1l-6.3 5.1 6.1 5.1c8.8 7.1 23.1 21.2 28.1 27.7 5.7 7.3 8.3 12.5 10.8 21.8 2 7.3 2.1 11.6 3 78.7 1.1 85.9.8 108.8-1.7 116.5-6.1 19.2-17.2 30-37 35.9-20.5 6.1-40.2 7.1-143.7 7.1H370V64h97c61.2 0 100.7.4 106.8 1.1zm-305 1.8c34.8 5.8 49.9 17.5 57.9 44.6 1.6 5.6 1.8 14.7 2.1 124.5.2 79.7-.1 120.7-.8 125.3-2.7 17.3-12.8 35.2-31.7 56.2-4 4.4-7.3 8.3-7.3 8.6 0 .3 2.7 2.3 6.1 4.4 9.5 5.8 17.1 12.7 20.6 18.6 5.1 8.5 6.3 15.1 6.9 36.4.5 15.3 10 117.2 12.8 137.3l.5 3.2h-55.5c-54.5 0-55.4 0-55.4-2 0-8.8-13.3-148.6-14.6-153.1-1.9-6.6-6.1-12.2-11.2-14.8-4.1-2.1-12.7-4.1-17.2-4.1h-3v174H66V64.9l97.8.4c71.4.3 99.7.7 105 1.6z"/><path d="M483 203.5v95.7l12.8-.3c11.8-.4 13-.6 17.4-3.2 5.5-3.2 10.2-9.5 12.9-17.3 1.9-5.3 2-8.6 1.7-76.2l-.3-70.7-2.6-5.6c-3.1-6.5-8.9-13.3-13.3-15.7-2.2-1.1-6.7-1.7-15.8-2l-12.8-.4v95.7zM483 472v109h10.8c18.3 0 24.8-3.5 30.9-16.5l2.8-6v-173l-3.1-6.6c-3.7-7.7-9.2-13.5-14.3-14.9-2-.5-8.9-1-15.3-1H483v109zM179 255.5V397h10c15 0 19.6-1.3 25.1-7 2.8-2.8 5.6-7.1 7-10.6l2.4-5.9v-236l-2.7-5.8c-3.8-8.1-8.1-13.2-13.1-15.6-3.7-1.8-6.2-2.1-16.5-2.1H179v141.5z"/></svg>