<?xml version="1.0" standalone="no"?>
<!DOCTYPE svg PUBLIC "-//W3C//DTD SVG 20010904//EN"
 "http://www.w3.org/TR/2001/REC-SVG-20010904/DTD/svg10.dtd">
<svg version="1.0" xmlns="http://www.w3.org/2000/svg"
 width="700.000000pt" height="700.000000pt" viewBox="0 0 700.000000 700.000000"
 preserveAspectRatio="xMidYMid meet">
<metadata>
Created by potrace 1.14, written by Peter Selinger 2001-2017
</metadata>
<g transform="translate(0.000000,700.000000) scale(0.100000,-0.100000)"
fill="#000000" stroke="none">
<path d="M0 3500 l0 -3500 3500 0 3500 0 0 3500 0 3500 -3500 0 -3500 0 0
-3500z m5738 2849 c227 -24 354 -72 446 -168 68 -72 101 -139 128 -264 26
-121 33 -520 20 -1162 -11 -500 -12 -514 -73 -645 -17 -36 -49 -89 -72 -120
-49 -65 -183 -199 -272 -271 l-63 -51 61 -51 c88 -71 231 -212 281 -277 57
-73 83 -125 108 -218 20 -73 21 -116 30 -787 11 -859 8 -1088 -17 -1165 -61
-192 -172 -300 -370 -359 -205 -61 -402 -71 -1437 -71 l-808 0 0 2810 0 2810
970 0 c612 0 1007 -4 1068 -11z m-3050 -18 c348 -58 499 -175 579 -446 16 -56
18 -147 21 -1245 2 -797 -1 -1207 -8 -1253 -27 -173 -128 -352 -317 -562 -40
-44 -73 -83 -73 -86 0 -3 27 -23 61 -44 95 -58 171 -127 206 -186 51 -85 63
-151 69 -364 5 -153 100 -1172 128 -1373 l5 -32 -555 0 c-545 0 -554 0 -554
20 0 88 -133 1486 -146 1531 -19 66 -61 122 -112 148 -41 21 -127 41 -172 41
l-30 0 0 -870 0 -870 -565 0 -565 0 0 2806 0 2805 978 -4 c714 -3 997 -7 1050
-16z"/>
<path d="M4830 4965 l0 -957 128 3 c118 4 130 6 174 32 55 32 102 95 129 173
19 53 20 86 17 762 l-3 707 -26 56 c-31 65 -89 133 -133 157 -22 11 -67 17
-158 20 l-128 4 0 -957z"/>
<path d="M4830 2280 l0 -1090 108 0 c183 0 248 35 309 165 l28 60 0 865 0 865
-31 66 c-37 77 -92 135 -143 149 -20 5 -89 10 -153 10 l-118 0 0 -1090z"/>
<path d="M1790 4445 l0 -1415 100 0 c150 0 196 13 251 70 28 28 56 71 70 106
l24 59 0 1180 0 1180 -27 58 c-38 81 -81 132 -131 156 -37 18 -62 21 -165 21
l-122 0 0 -1415z"/>
</g>
</svg>
